<svg version="1.1" id="Layer_1" xmlns="http://www.w3.org/2000/svg" xmlns:xlink="http://www.w3.org/1999/xlink" x="0px" y="0px"
	 width="100%" viewBox="0 0 1024 1024" enable-background="new 0 0 1024 1024" xml:space="preserve">
<path fill="#fff" opacity="1.000000" stroke="none" 
	d="
M304.195251,616.821716 
	C270.419098,586.135010 261.016663,537.744080 263.551056,509.872375 
	C266.556458,509.400238 268.962433,511.140656 271.502380,512.192261 
	C306.500092,526.682678 330.338867,552.676025 347.142578,585.846375 
	C351.808838,595.057678 355.985321,604.534851 362.093353,612.939392 
	C370.439545,624.423584 377.052063,627.540344 392.387573,626.886719 
	C383.577118,618.872009 377.525635,609.445557 371.474823,600.043762 
	C363.984253,588.404785 358.642609,575.573975 351.410065,563.761292 
	C331.459961,531.177612 303.752441,508.017365 268.047424,494.553833 
	C263.855957,492.973328 262.127716,490.962189 262.642487,486.624451 
	C263.067780,483.040497 262.096649,479.347107 263.461304,474.811218 
	C308.443573,488.669861 342.372223,515.991821 367.574585,555.466675 
	C367.574585,547.051880 367.888123,538.623169 367.515656,530.224915 
	C366.407501,505.236847 367.330811,480.244354 367.047089,455.256439 
	C366.973297,448.757874 366.820496,442.252777 367.030731,435.761230 
	C367.153442,431.972473 365.863190,430.204254 362.063110,429.149323 
	C346.695435,424.883240 332.297211,418.541565 319.739746,408.410370 
	C301.536133,393.723969 291.762421,374.542664 288.693115,351.585297 
	C287.605560,343.450989 287.664032,335.315369 287.719452,327.157593 
	C287.739716,324.175934 288.398895,322.326813 292.129364,323.312286 
	C316.630035,329.784882 338.160736,340.885345 353.103485,362.256073 
	C362.816132,376.146851 367.245544,391.977081 368.821930,408.563934 
	C369.355957,414.182983 372.295593,413.918762 376.131836,413.918579 
	C379.835907,413.918396 382.507141,414.047241 382.967438,408.711395 
	C385.292694,381.757111 395.931702,358.998352 418.124695,342.484619 
	C430.881561,332.992279 445.219238,326.950989 460.518768,322.974365 
	C463.404694,322.224243 464.987854,322.864838 465.106445,326.144165 
	C466.156799,355.187714 460.335663,381.894135 438.578278,403.004242 
	C424.964661,416.212860 408.274445,424.010620 390.245789,429.017944 
	C385.725769,430.273346 384.199036,432.180298 384.220581,436.879669 
	C384.417725,479.873535 384.415588,522.868591 384.380035,565.863159 
	C384.367432,581.084167 387.427277,595.018188 397.478333,607.261902 
	C420.042267,634.748291 462.949860,633.198730 483.350098,603.982727 
	C492.799713,590.449524 495.593628,575.505371 494.763641,559.407776 
	C494.335541,551.104736 494.634094,551.088989 502.852295,551.088623 
	C504.685181,551.088562 506.518036,551.091003 508.350922,551.094971 
	C510.816772,551.100342 511.924286,552.389526 512.066772,554.803040 
	C513.217957,574.308228 511.043457,593.077576 500.150330,609.989380 
	C496.445862,615.740601 491.909790,620.808960 487.186157,625.810547 
	C488.753448,627.409729 490.517609,626.738892 492.058899,626.740051 
	C560.883789,626.790222 629.708679,626.796387 698.533630,626.791321 
	C704.162842,626.790955 704.040771,626.737122 704.032410,618.525574 
	C704.000854,587.363281 704.037476,556.200928 704.085999,525.038574 
	C704.107483,511.223175 704.137268,497.406708 704.337891,483.593262 
	C704.398254,479.439301 703.093201,476.364655 699.846985,473.639191 
	C671.139099,449.536194 642.575317,425.261444 613.854797,401.173462 
	C606.666992,395.145020 608.482971,394.970215 600.607422,400.719635 
	C546.923401,439.911011 493.301239,479.187134 439.638733,518.408020 
	C423.739166,530.028687 414.075775,544.723633 415.159149,565.312866 
	C416.090271,583.008606 426.261292,593.735779 443.810516,594.743652 
	C444.634674,594.791077 445.852814,594.595703 446.214417,595.049622 
	C449.572571,599.264954 447.552826,604.251038 447.888306,608.890564 
	C448.105621,611.895447 445.447906,611.910889 443.234955,612.078308 
	C426.427643,613.349304 409.335693,602.279175 402.073151,584.982727 
	C395.029633,568.207947 396.089935,551.449036 403.408356,535.041321 
	C409.032440,522.432373 417.857086,512.283325 428.947540,504.193695 
	C472.690186,472.286774 516.516235,440.494415 560.283386,408.621063 
	C574.423279,398.323700 588.583130,388.047546 602.503296,377.458618 
	C606.472961,374.438995 609.076172,374.195068 613.097717,377.592224 
	C661.709961,418.657257 710.485413,459.529022 759.217529,500.452057 
	C759.727966,500.880646 760.252441,501.296539 760.729309,501.760498 
	C763.528320,504.483490 769.068359,506.288177 768.541504,510.037079 
	C767.938232,514.329224 763.235046,517.407898 760.018311,520.764771 
	C757.936401,522.937378 756.446594,521.193176 754.931641,519.922729 
	C745.741821,512.216309 736.570007,504.488312 727.369995,496.794128 
	C726.116333,495.745697 725.031799,494.377594 723.144409,494.145477 
	C721.316956,495.479218 722.086731,497.468903 722.081238,499.156708 
	C721.929993,545.648315 721.732483,592.140320 721.861633,638.631470 
	C721.875610,643.673889 720.083984,644.367676 715.815369,644.360657 
	C661.988647,644.272583 608.161621,644.336121 554.334717,644.327271 
	C520.513123,644.321716 486.691559,644.241455 452.869995,644.228333 
	C425.890106,644.217896 398.909973,644.334290 371.930359,644.254333 
	C345.851196,644.177063 323.752136,634.054749 304.195251,616.821716 
z"/>
<path fill="#fff" opacity="1.000000" stroke="none" 
	d="
M464.278900,420.004120 
	C464.478149,442.221313 459.491180,462.463898 446.478790,480.172180 
	C433.409119,497.958344 415.352600,508.359070 394.399994,514.236267 
	C391.365631,515.087402 390.067383,514.028076 389.817383,510.977509 
	C385.838440,462.424133 408.250488,420.116974 457.228027,403.994171 
	C462.846100,402.144775 463.465942,402.552643 463.975342,408.523346 
	C464.286194,412.166870 464.191193,415.845032 464.278900,420.004120 
z"/>
<path fill="#fff" opacity="1.000000" stroke="none" 
	d="
M288.687866,431.008789 
	C288.710022,423.052704 288.826416,415.568115 288.734650,408.086060 
	C288.682281,403.817780 290.017395,402.480499 294.413025,403.923096 
	C328.668610,415.165527 350.422729,438.042633 359.290985,473.060333 
	C362.507050,485.759613 363.090454,498.666473 362.340088,511.679199 
	C362.282501,512.677917 362.295349,513.689880 361.481873,514.450806 
	C325.609894,507.799103 291.489044,478.689484 288.687866,431.008789 
z"/>
<path fill="#fff" opacity="1.000000" stroke="none" 
	d="
M393.164001,352.075287 
	C389.034454,358.014404 384.047028,362.691315 379.282745,367.586578 
	C376.730408,370.209076 374.899384,370.003357 372.205597,367.611481 
	C345.750092,344.121307 339.599609,313.595154 354.686768,279.638153 
	C359.516388,268.768005 365.859009,258.816620 373.235352,249.508148 
	C373.949432,248.607010 374.591766,247.608704 376.392822,247.230392 
	C380.244293,250.594162 382.847321,255.255356 385.841064,259.564514 
	C395.079102,272.861694 401.691101,287.330536 404.367706,303.374359 
	C407.300446,320.953918 403.515778,337.116058 393.164001,352.075287 
z"/>
<path fill="#fff" opacity="1.000000" stroke="none" 
	d="
M277.250732,712.608643 
	C276.138977,719.578491 272.448700,724.229675 266.312439,727.421143 
	C269.208954,734.931824 274.920593,740.549744 278.249359,747.486877 
	C271.654907,750.875916 266.869263,749.717102 263.195801,744.081482 
	C261.197906,741.016296 259.217468,737.939331 257.267365,734.843567 
	C253.890457,729.482788 250.102249,727.994141 243.926468,729.399902 
	C241.606293,729.927979 241.113373,731.447754 241.081024,733.416870 
	C241.018173,737.242004 240.932129,741.067810 240.948807,744.892883 
	C240.969025,749.532104 237.677124,749.006042 234.668121,749.087646 
	C231.553665,749.172058 228.975967,748.823303 228.995148,744.732361 
	C229.074753,727.765564 229.097763,710.798523 229.106262,693.831543 
	C229.107727,690.905579 230.387375,689.685974 233.362808,689.733215 
	C240.680161,689.849304 248.000610,689.753418 255.319687,689.780579 
	C270.672852,689.837585 277.477600,696.785278 277.250732,712.608643 
M258.733368,700.303711 
	C254.241867,700.205566 249.750732,700.077942 245.258713,700.021912 
	C243.100128,699.994934 241.088516,700.460327 241.130981,703.189392 
	C241.390625,719.877686 237.631058,720.604126 256.309204,719.127563 
	C256.475037,719.114502 256.639923,719.089050 256.804932,719.067078 
	C262.623474,718.294373 265.299744,715.957458 265.842773,710.903381 
	C266.380798,705.896057 264.857513,702.011292 258.733368,700.303711 
z"/>
<path fill="#fff" opacity="1.000000" stroke="none" 
	d="
M389.028503,743.704285 
	C389.047913,727.594055 389.154297,711.949646 389.015381,696.307312 
	C388.976624,691.942017 389.789703,689.549438 395.005219,689.613159 
	C399.763336,689.671326 401.076965,691.339783 400.782806,695.829529 
	C400.457458,700.795227 400.895203,705.806213 400.810577,710.794312 
	C400.770264,713.171692 401.229431,714.678772 404.007202,714.615784 
	C410.825104,714.461243 417.644958,714.316772 424.463928,714.320435 
	C427.237701,714.321899 427.777588,712.878235 427.751526,710.533813 
	C427.690521,705.042725 427.894958,699.545837 427.723694,694.059692 
	C427.578156,689.397522 430.618439,689.713196 433.724945,689.680420 
	C436.737305,689.648743 439.361267,689.545654 439.332336,693.879028 
	C439.219055,710.853333 439.217285,727.829529 439.357483,744.803528 
	C439.392456,749.036926 436.958099,749.215515 433.859619,749.167786 
	C430.749573,749.119812 427.677032,749.396973 427.798096,744.775269 
	C427.928772,739.786621 427.678040,734.787964 427.811768,729.799500 
	C427.899353,726.532410 426.898132,724.805298 423.309967,724.889526 
	C417.488647,725.026184 411.659882,724.987610 405.837280,724.870972 
	C402.211578,724.798401 400.737061,726.379211 400.860809,729.982666 
	C401.020691,734.637146 400.834686,739.302551 400.939331,743.960144 
	C401.016876,747.410156 399.820099,749.295654 396.037781,749.135559 
	C392.532166,748.987183 388.581696,749.772217 389.028503,743.704285 
z"/>
<path fill="#fff" opacity="1.000000" stroke="none" 
	d="
M577.228577,693.203247 
	C571.932617,699.207520 566.969238,705.042542 561.752380,710.641357 
	C559.426819,713.137207 559.195557,715.006042 561.223877,717.951172 
	C566.981262,726.310913 572.361328,734.931152 577.857605,743.469604 
	C578.729248,744.823730 579.909851,746.089417 579.843079,747.849854 
	C572.690186,750.842102 568.561523,749.677063 564.605286,743.720886 
	C560.204773,737.095886 555.764160,730.497437 551.136169,723.581299 
	C544.764038,728.983948 539.678040,734.299194 541.324219,743.157898 
	C542.028076,746.945801 541.241394,749.365662 536.265259,749.266174 
	C531.555298,749.172180 529.744507,747.787415 529.805603,742.953491 
	C530.007690,726.971497 530.087341,710.981628 529.784912,695.002869 
	C529.675110,689.204346 533.021423,689.871582 536.829529,689.535095 
	C541.581909,689.115112 541.416687,691.795898 541.372314,695.038818 
	C541.273193,702.291687 541.341309,709.546814 542.524719,717.154236 
	C548.218811,710.487976 553.925476,703.832458 559.603577,697.152649 
	C566.516479,689.020325 567.357544,688.685181 578.439392,689.946838 
	C579.271790,691.319824 578.090515,692.040466 577.228577,693.203247 
z"/>
<path fill="#fff" opacity="1.000000" stroke="none" 
	d="
M210.651932,749.118958 
	C204.700516,750.148315 201.297440,747.612732 198.447891,742.994812 
	C194.443405,736.505249 189.835327,730.388245 185.298187,723.841797 
	C178.619797,728.632019 174.549438,734.188232 176.060654,742.695374 
	C176.866989,747.234436 175.019775,749.369141 170.027817,749.204529 
	C165.966934,749.070618 164.519653,747.813843 164.570343,743.656860 
	C164.767151,727.519104 164.802734,711.375549 164.576355,695.238770 
	C164.513351,690.747437 166.104782,689.596802 170.364059,689.574402 
	C174.741989,689.551392 176.302917,691.013977 176.151001,695.348938 
	C175.908310,702.273315 176.086075,709.212463 176.086075,717.630981 
	C183.425232,709.413330 190.235199,702.609436 196.035492,695.032593 
	C200.635925,689.023193 206.087097,689.172241 213.047440,690.283508 
	C210.703751,695.043030 206.782745,697.968567 203.940506,701.671753 
	C201.415466,704.961731 198.624435,708.094238 195.633774,710.966064 
	C193.018036,713.477661 193.285095,715.480286 195.253326,718.253723 
	C200.739899,725.984802 205.985275,733.888000 211.267532,741.762390 
	C212.541946,743.662292 214.335510,745.310730 214.593750,747.732788 
	C213.813965,749.344299 212.341171,748.956360 210.651932,749.118958 
z"/>
<path fill="#fff" opacity="1.000000" stroke="none" 
	d="
M502.914490,746.130493 
	C498.086578,734.508362 500.910248,736.247253 488.246918,735.987061 
	C486.417969,735.949524 484.547577,736.239075 482.764374,735.953125 
	C474.651367,734.652222 469.152496,736.963562 466.820343,745.634033 
	C465.738800,749.655090 462.249756,750.089722 455.250000,748.350098 
	C454.248749,747.000183 455.121185,745.828003 455.636444,744.645752 
	C462.943451,727.880249 470.403107,711.178955 477.473480,694.314392 
	C479.184601,690.232971 481.755341,689.672913 485.580780,689.496460 
	C489.267303,689.326355 490.895355,690.742737 492.257019,693.915466 
	C499.534180,710.870972 507.000702,727.745239 514.387634,744.653748 
	C514.840515,745.690552 515.577515,746.701538 514.746155,748.645813 
	C510.912415,748.621765 506.548615,751.256714 502.914490,746.130493 
M486.852722,707.854797 
	C486.421875,706.835266 486.370880,705.545227 484.342163,705.024353 
	C481.606689,711.528992 478.846375,718.092651 475.687531,725.604004 
	C482.191986,726.055542 487.506500,726.255615 493.376587,725.526123 
	C492.199341,719.191101 488.990662,714.081055 486.852722,707.854797 
z"/>
<path fill="#fff" opacity="1.000000" stroke="none" 
	d="
M341.014038,748.382080 
	C336.566772,747.176514 332.840790,745.396362 329.150208,743.422913 
	C324.909332,741.155151 324.157654,738.523804 327.303833,734.805603 
	C328.252594,733.684326 328.631012,732.102417 330.161987,731.267212 
	C332.188904,731.019836 333.273102,732.793396 334.712067,733.775452 
	C340.286560,737.579773 346.359833,739.441956 353.110291,738.649292 
	C356.304169,738.274231 358.926880,736.810913 359.630280,733.418579 
	C360.332397,730.032349 358.165100,727.916992 355.418091,726.860779 
	C349.685364,724.656372 343.685150,723.126953 338.013214,720.790222 
	C331.347595,718.044128 328.040283,712.604004 328.437134,705.890991 
	C328.858582,698.760925 332.223633,693.601562 339.069794,691.011353 
	C342.372314,689.761963 345.831055,689.046509 349.333282,689.144836 
	C355.926697,689.329895 362.042511,691.355225 367.907684,694.353394 
	C372.106293,696.499573 369.605042,698.919922 368.490479,701.339905 
	C367.385925,703.738159 366.330078,705.927063 362.973175,703.867065 
	C358.949493,701.397827 354.399445,700.230408 349.754333,699.591309 
	C345.059570,698.945435 340.948669,701.015381 340.447815,704.335571 
	C339.773956,708.802979 342.978790,710.515503 346.377594,711.766846 
	C350.747406,713.375549 355.243561,714.641968 359.608917,716.261658 
	C368.859283,719.693787 373.015289,725.664368 372.011505,733.793884 
	C371.025543,741.779053 364.693634,747.944153 355.822937,749.031494 
	C351.047272,749.616821 346.183350,749.734985 341.014038,748.382080 
z"/>
<path fill="#fff" opacity="1.000000" stroke="none" 
	d="
M857.896729,695.336609 
	C857.831482,712.269897 857.751770,728.743408 857.690613,745.216980 
	C857.683044,747.257507 857.256897,748.941895 854.767944,748.953430 
	C851.899231,748.966797 851.748108,746.906799 851.745911,744.798035 
	C851.733398,732.642456 851.750183,720.486816 851.690491,708.331482 
	C851.682739,706.752075 852.219971,705.053589 850.724792,702.897339 
	C848.946655,706.061768 847.311401,708.859192 845.782715,711.713623 
	C841.146729,720.370361 836.549988,729.048096 831.942932,737.720215 
	C831.156250,739.201172 830.463806,740.824829 828.379456,740.685669 
	C826.422974,740.555054 825.638672,739.035828 824.846069,737.536743 
	C819.400452,727.236450 813.950928,716.938293 808.480774,706.651001 
	C807.869629,705.501709 807.121521,704.425232 805.873108,702.400513 
	C804.862305,716.075867 805.507996,728.765808 805.321716,741.435364 
	C805.302124,742.766785 805.351562,744.099243 805.338684,745.430847 
	C805.321533,747.205444 805.065613,748.852295 802.772095,748.945740 
	C800.295837,749.046692 799.697144,747.491455 799.693726,745.395874 
	C799.682739,738.568848 799.418152,731.732971 799.678162,724.916809 
	C800.115051,713.463867 798.247864,702.002075 799.670471,690.460388 
	C804.120361,688.480835 806.691772,689.637939 808.878052,693.966492 
	C814.428223,704.955444 820.448853,715.706787 826.285645,726.550842 
	C826.827148,727.556946 827.247742,728.683899 828.586487,729.139526 
	C830.822632,727.693359 831.602051,725.225952 832.750916,723.089172 
	C838.110901,713.120605 843.467163,703.147278 848.609009,693.065674 
	C850.201782,689.942688 852.618103,689.193054 855.585022,689.638672 
	C858.806946,690.122681 857.540894,692.932190 857.896729,695.336609 
z"/>
<path fill="#fff" opacity="1.000000" stroke="none" 
	d="
M665.612305,698.068787 
	C665.657776,689.801331 665.657776,689.795105 673.187988,689.768616 
	C679.015442,689.748169 684.843567,689.684509 690.670227,689.748230 
	C701.973145,689.871826 708.295715,694.279968 710.532837,703.483643 
	C712.873779,713.114746 709.371460,720.103455 699.554138,725.433777 
	C698.986694,725.741943 698.492004,726.184204 697.591553,726.831238 
	C701.715698,734.247437 707.874084,740.243896 711.809692,748.010864 
	C707.929077,750.051575 705.219971,749.231018 702.971619,746.049683 
	C699.705444,741.428467 696.165100,736.985474 693.142273,732.212769 
	C690.627319,728.241882 687.460449,726.407349 682.790222,727.032959 
	C681.318420,727.229980 679.777954,727.213684 678.302490,727.028381 
	C673.533447,726.429382 671.595459,728.333801 672.021545,733.200623 
	C672.354309,737.001587 672.113831,740.853455 672.110107,744.682739 
	C672.108093,746.831909 671.744629,748.791321 669.017273,748.899719 
	C665.870422,749.024719 665.714966,746.829102 665.711304,744.510864 
	C665.687134,729.193176 665.647644,713.875427 665.612305,698.068787 
M691.231445,695.997253 
	C686.241333,696.001282 681.250427,696.057129 676.261292,695.989441 
	C673.339355,695.949890 672.001343,697.204529 672.051147,700.169861 
	C672.143250,705.657715 672.175049,711.148682 672.097778,716.636475 
	C672.055969,719.607788 673.305420,720.828430 676.282715,720.751770 
	C681.269714,720.623291 686.263611,720.779541 691.251770,720.675781 
	C699.459351,720.505005 704.354553,716.200378 704.717041,708.985107 
	C705.094543,701.471619 700.609131,696.836182 691.231445,695.997253 
z"/>
<path fill="#fff" opacity="1.000000" stroke="none" 
	d="
M645.062988,723.207214 
	C645.048462,725.683838 645.035645,727.683777 645.024170,729.683655 
	C644.948181,742.898071 644.247437,744.592346 631.350342,748.213623 
	C614.187927,753.032532 597.608459,745.028748 593.284302,727.844910 
	C590.039673,714.951294 594.169128,701.563599 604.111511,694.691589 
	C614.779236,687.318298 626.144775,686.923279 637.617310,693.147644 
	C638.784546,693.780823 639.894531,694.537537 640.965942,695.325500 
	C642.596069,696.524536 643.552429,697.901489 642.125366,699.952454 
	C640.601196,702.142944 639.052368,701.291443 637.456970,700.139954 
	C630.011841,694.766052 621.777100,693.405701 613.303955,696.649597 
	C600.683960,701.481262 594.840759,715.784302 599.770081,728.500061 
	C604.596680,740.950806 618.487427,746.861023 631.645630,742.062317 
	C638.017883,739.738464 641.392395,731.290161 638.451965,725.131042 
	C637.637024,723.424133 636.137451,723.421814 634.641541,723.395203 
	C631.309143,723.335815 627.975769,723.335266 624.642761,723.305054 
	C622.827454,723.288635 621.179626,722.915161 621.242371,720.643677 
	C621.290527,718.901855 622.372253,717.868469 624.140747,717.856262 
	C630.139038,717.814880 636.140991,717.716675 642.135010,717.880005 
	C645.246277,717.964783 644.946838,720.584595 645.062988,723.207214 
z"/>
<path fill="#fff" opacity="1.000000" stroke="none" 
	d="
M776.119873,730.948853 
	C778.510803,736.793274 781.458496,742.018188 782.977600,748.088196 
	C779.055115,749.914612 776.765015,749.071350 775.027588,745.152649 
	C769.103333,731.790588 772.437805,734.601196 758.062134,734.281189 
	C753.238037,734.173767 748.385254,734.566284 743.590088,734.179199 
	C739.160461,733.821594 736.784668,735.556946 735.490295,739.632141 
	C734.688782,742.155579 733.519287,744.578857 732.340881,746.960999 
	C731.247009,749.172180 729.207520,749.408813 727.204529,748.559937 
	C724.856812,747.564941 726.088135,745.753723 726.719910,744.328430 
	C734.404236,726.994080 742.161255,709.691833 749.821411,692.346802 
	C750.809204,690.110229 752.474854,689.709473 754.593262,689.540588 
	C756.884094,689.357971 757.784729,690.596802 758.616333,692.442871 
	C764.355469,705.182739 770.175537,717.886108 776.119873,730.948853 
M752.579468,728.642029 
	C757.290466,728.276550 762.133362,729.399658 767.351196,727.445374 
	C763.500671,717.574158 758.998413,708.347900 753.965698,697.926086 
	C749.365173,708.389404 745.287231,717.664246 741.228271,726.895874 
	C744.986755,729.389160 748.395508,728.390869 752.579468,728.642029 
z"/>
<path fill="#fff" opacity="1.000000" stroke="none" 
	d="
M582.093689,554.799133 
	C588.402710,554.806396 594.222961,554.870422 600.041504,554.795044 
	C602.969910,554.757202 604.283325,555.971069 604.251038,558.947815 
	C604.173523,566.096741 604.153748,573.248169 604.260193,580.396301 
	C604.304138,583.340759 603.282043,584.544739 600.192261,584.487427 
	C592.880493,584.351685 585.561279,584.422913 578.249329,584.593262 
	C575.607361,584.654724 574.666138,583.590698 574.680908,581.098694 
	C574.725281,573.617004 574.678528,566.134705 574.698181,558.652771 
	C574.712219,553.311462 578.819458,555.220642 582.093689,554.799133 
z"/>
<path fill="#fff" opacity="1.000000" stroke="none" 
	d="
M613.143799,519.587036 
	C620.730225,519.575989 627.897156,519.733887 635.056702,519.569397 
	C638.823669,519.482971 640.513123,520.642822 640.353333,524.689148 
	C640.097229,531.176758 640.134949,537.686523 640.343079,544.177551 
	C640.455627,547.688416 639.029297,548.971558 635.686340,548.946289 
	C628.689758,548.893555 621.692078,548.989197 614.694885,549.012817 
	C612.703552,549.019531 610.844910,548.586609 610.827454,546.149780 
	C610.769104,537.989563 610.822449,529.828308 610.876587,521.667786 
	C610.883972,520.546814 611.630737,519.876343 613.143799,519.587036 
z"/>
<path fill="#fff" opacity="1.000000" stroke="none" 
	d="
M615.198547,584.346069 
	C612.017395,584.431885 610.787231,583.133423 610.793823,580.424255 
	C610.811523,573.100586 610.777344,565.776611 610.716370,558.453125 
	C610.695190,555.913513 611.966125,554.824646 614.390198,554.824707 
	C621.880188,554.824768 629.370117,554.829834 636.860107,554.812988 
	C639.090027,554.807983 640.263550,555.802124 640.260498,558.102356 
	C640.250488,565.592346 640.233643,573.082520 640.277222,580.572266 
	C640.296204,583.838074 638.266846,584.318359 635.650513,584.309570 
	C628.992554,584.287231 622.334290,584.335632 615.198547,584.346069 
z"/>
<path fill="#fff" opacity="1.000000" stroke="none" 
	d="
M603.875610,521.371460 
	C604.092285,529.288513 604.054321,536.760254 604.251709,544.225830 
	C604.344482,547.733826 602.744568,548.940491 599.475159,548.920044 
	C592.667969,548.877319 585.858276,548.887939 579.053040,549.036926 
	C575.818909,549.107666 574.627808,547.738464 574.678894,544.574402 
	C574.791565,537.602478 574.678406,530.627197 574.700439,523.653442 
	C574.706116,521.844910 574.507812,519.665955 577.216248,519.680725 
	C585.670593,519.726929 594.124634,519.877930 602.577637,520.045654 
	C602.963196,520.053284 603.337769,520.618286 603.875610,521.371460 
z"/>
<path fill="#fff" opacity="1.000000" stroke="none" 
	d="
M308.207581,717.000000 
	C308.201294,726.327454 308.031982,735.158875 308.252228,743.980652 
	C308.366241,748.545105 305.924438,749.072998 302.283569,749.117676 
	C298.592010,749.163025 296.771698,748.080688 296.800568,744.020325 
	C296.917877,727.532349 296.910339,711.042053 296.753174,694.554504 
	C296.711884,690.225342 299.036224,689.771423 302.462250,689.734802 
	C305.932404,689.697632 308.294128,690.227478 308.204071,694.515869 
	C308.050171,701.840698 308.189697,709.171631 308.207581,717.000000 
z"/>
</svg>