<svg xmlns="http://www.w3.org/2000/svg" width="1000" height="1000" viewBox="0 0 1000 1000" version="1.1"><path d="M 466.500 229.613 C 447.478 231.475, 428.335 237.163, 411 246.105 C 396.448 253.611, 388.087 259.802, 375.432 272.443 C 359.068 288.790, 348.223 306.484, 340.596 329.281 C 335.383 344.862, 333.632 355.922, 333.672 373 C 333.725 395.804, 338.018 412.416, 349.796 435.398 C 354.433 444.448, 366.303 461.108, 371.910 466.437 C 375.912 470.241, 375.810 469.405, 371.493 462.989 C 363.878 451.674, 356.089 431.840, 353.542 417.282 C 351.528 405.763, 351.527 381.991, 353.541 370.381 C 356.387 353.971, 361.734 340.144, 370.592 326.284 C 377.854 314.920, 393.267 300.892, 404.981 294.984 C 415.192 289.834, 433.018 285.001, 441.815 284.998 C 447.630 284.997, 449.580 283.926, 466.405 271.500 C 481.962 260.011, 496.587 251.065, 513.818 242.500 C 520.457 239.200, 525.914 236.234, 525.944 235.908 C 526.027 235.033, 519.669 233.299, 509.500 231.424 C 500.934 229.845, 475.205 228.761, 466.500 229.613 M 571.456 230.947 C 557.686 232.535, 538.860 238.589, 518.570 247.953 C 496.973 257.920, 468.231 277.456, 440 301.358 C 427.465 311.971, 407.203 331.799, 405.418 335.200 C 402.367 341.012, 405.093 347.031, 410.750 346.971 C 414.073 346.935, 417.103 344.250, 426.894 332.666 C 433.372 324.999, 436.597 322, 438.363 322 C 439.220 322, 442 325.102, 442 326.057 C 442 326.815, 426.379 344.833, 413.439 359 C 401.113 372.495, 393 382.349, 393 383.824 C 393 386.436, 395.871 390, 397.975 390 C 401.399 390, 402.767 388.907, 409.635 380.680 C 422.248 365.572, 445.829 340.879, 461.555 326.311 C 499.870 290.818, 544.907 264.807, 585.934 254.478 C 608.613 248.768, 626.342 250.955, 636.750 260.745 C 641.084 264.822, 640.858 262.761, 636.192 255.666 C 628.279 243.632, 618.980 236.672, 605.980 233.052 C 597.433 230.672, 582.003 229.731, 571.456 230.947 M 592.500 259.366 C 571.685 263.856, 554.027 270.812, 533 282.806 C 503.769 299.479, 480.997 317.224, 451.262 346.500 C 435.877 361.647, 433.996 363.857, 433.998 366.775 C 434 369.369, 434.533 370.252, 436.565 371.025 C 437.976 371.561, 439.371 372, 439.664 372 C 439.958 372, 447.780 364.316, 457.047 354.924 C 470.514 341.274, 474.357 337.913, 476.197 338.174 C 479.333 338.618, 479.629 341.937, 476.808 345.019 C 475.559 346.384, 469.353 352.912, 463.018 359.527 C 456.683 366.143, 449.475 373.795, 447 376.532 C 429.447 395.946, 424.057 401.959, 421.224 405.285 C 417.198 410.011, 416.906 414.181, 420.488 415.813 C 423.811 417.326, 424.998 416.731, 429.596 411.247 C 464.922 369.108, 490.775 344.904, 524.823 322.096 C 541.947 310.624, 575.132 295.192, 591.910 290.897 C 611.210 285.956, 626.165 290.595, 629.774 302.640 C 631.243 307.544, 631.304 318.771, 629.895 325 C 629.335 327.475, 628.664 330.850, 628.404 332.500 C 627.584 337.704, 633.724 324.977, 637.723 313.181 C 640.851 303.956, 641.351 301.205, 641.395 293 C 641.436 285.360, 640.999 282.380, 639.162 277.779 C 636.099 270.107, 630.055 264.064, 622.500 261.119 C 615.159 258.257, 601.373 257.451, 592.500 259.366 M 585.929 300.440 C 567.429 306.896, 539.052 320.145, 539.014 322.344 C 539.006 322.808, 540.924 325.733, 543.275 328.844 C 560.628 351.799, 567.001 370.112, 566.995 397 C 566.989 422.190, 561.827 439.843, 541.996 482.500 C 518.794 532.406, 513.429 553.336, 517.086 579.678 C 518.949 593.094, 526.216 609.519, 535.471 621.231 C 540.174 627.182, 544.456 629.461, 546.097 626.885 C 546.582 626.123, 546.747 624.871, 546.464 624.102 C 546.181 623.333, 545.677 616.583, 545.345 609.102 C 544.316 585.943, 548.973 563.388, 558.528 545.257 C 572.459 518.823, 590.923 506.649, 621.191 503.938 C 660.247 500.440, 674.435 486.235, 661.031 464.051 C 656.281 456.190, 656.052 453.313, 659.564 445.641 C 661.850 440.648, 661.985 439.739, 660.807 437.270 C 659.692 434.933, 658.783 434.456, 654.993 434.218 C 647.482 433.746, 647.458 433.418, 654.439 426.739 C 660.227 421.202, 661 420.023, 661 416.730 C 661 413.721, 660.257 412.271, 657.166 409.249 C 655.058 407.187, 652.551 404.293, 651.595 402.817 C 649.415 399.450, 650.332 397.449, 657.149 390.695 C 660.279 387.594, 662 385.034, 662 383.479 C 662 379.288, 656.611 374.404, 648.710 371.433 C 634.452 366.073, 625.538 361.263, 620.288 356.095 C 614.318 350.218, 612.019 344.883, 608.932 329.738 C 604.902 309.973, 601.372 297.966, 599.194 296.620 C 598.734 296.336, 592.765 298.055, 585.929 300.440 M 496.362 320.500 C 494.952 324.172, 499.013 327.416, 501.680 324.748 C 503.903 322.525, 502.506 319, 499.401 319 C 498.046 319, 496.678 319.675, 496.362 320.500 M 483.390 329.427 C 481.728 333.756, 485.386 338.506, 488.750 336.388 C 491.203 334.843, 491.483 332.191, 489.433 329.926 C 487.384 327.662, 484.169 327.397, 483.390 329.427 M 397.514 348.985 C 395.065 351.691, 395.930 355.214, 399.262 356.099 C 403.729 357.287, 406.565 353.325, 403.750 349.831 C 401.722 347.314, 399.321 346.988, 397.514 348.985 M 389.685 360.378 C 389.094 361.919, 390.765 364, 392.593 364 C 393.997 364, 395.254 361.221, 394.444 359.910 C 393.578 358.508, 390.278 358.833, 389.685 360.378 M 425.342 375.601 C 423.334 378.665, 424.424 381.310, 427.907 381.827 C 432.532 382.513, 435.095 376.192, 431.066 374.035 C 428.168 372.484, 427.213 372.745, 425.342 375.601 M 487.738 384.087 C 486.769 384.651, 482.786 389.250, 478.888 394.306 C 465.707 411.405, 453.575 424.882, 433 445.283 C 410.894 467.203, 399.078 476.774, 386.500 482.948 C 366.475 492.777, 352.632 490.076, 346.925 475.226 C 345.114 470.513, 344.729 467.479, 344.746 458.082 C 344.769 445.821, 343.881 445.282, 342.144 456.500 C 338.481 480.149, 341.068 495.694, 350.340 505.753 C 356.154 512.061, 360.977 514.240, 370.359 514.800 C 380.473 515.404, 387.426 513.847, 398 508.610 C 414.884 500.248, 432.374 485.950, 460.388 457.609 C 486.412 431.282, 489.585 426.985, 485.800 423.200 C 482.863 420.263, 480.320 422.064, 465.940 437.264 C 448.985 455.187, 446.722 457.214, 444.589 456.396 C 440.909 454.984, 442.984 451.160, 453.312 440.322 C 478.162 414.242, 496 392.431, 496 388.126 C 496 384.017, 491.574 381.853, 487.738 384.087 M 416.750 385.080 C 414.579 386.344, 414.512 388.369, 416.571 390.429 C 418.867 392.724, 420.881 392.355, 422.232 389.390 C 423.253 387.150, 423.152 386.584, 421.519 385.390 C 419.286 383.757, 419.047 383.742, 416.750 385.080 M 385.223 392.557 C 381.207 395.369, 383.301 402, 388.205 402 C 390.981 402, 394 399.224, 394 396.671 C 394 394.702, 390.555 391, 388.723 391 C 388.020 391, 386.445 391.701, 385.223 392.557 M 528.381 394.541 C 525.828 398.437, 527.796 402, 532.500 402 C 536.863 402, 538.726 399.041, 537.084 394.722 C 535.666 390.990, 530.774 390.889, 528.381 394.541 M 507 394.500 C 506.007 395.697, 506.007 396.303, 507 397.500 C 507.685 398.325, 508.817 399, 509.515 399 C 511.523 399, 512.067 396.209, 510.386 394.529 C 508.512 392.655, 508.531 392.655, 507 394.500 M 408.667 394.667 C 407.337 395.996, 408.047 397.880, 410.125 398.540 C 412.451 399.278, 414.153 397.563, 413.300 395.341 C 412.764 393.942, 409.820 393.514, 408.667 394.667 M 498.105 403.804 C 496.290 407.196, 500.729 410.066, 503.330 407.183 C 504.583 405.793, 504.624 405.195, 503.563 403.750 C 501.903 401.487, 499.331 401.513, 498.105 403.804 M 514.875 408.750 C 512.372 411.363, 507.721 416.650, 504.539 420.500 C 487.386 441.254, 449.373 479.689, 432.742 493.094 C 397.028 521.880, 376.597 528.463, 353.750 518.546 C 350.373 517.080, 351.978 520.152, 357.298 525.337 C 366.020 533.837, 375.699 537.843, 389.614 538.710 C 414.704 540.273, 439.420 528.900, 472.640 500.505 C 486.554 488.611, 512.243 463.693, 515.175 459.247 C 518.922 453.565, 516.429 447, 510.525 447 C 507.521 447, 505.967 448.277, 495.918 459 C 489.542 465.803, 483.885 471, 482.855 471 C 480.044 471, 479.321 466.377, 481.711 463.695 C 482.786 462.488, 487.203 457.450, 491.525 452.500 C 495.847 447.550, 499.636 443.275, 499.944 443 C 501.060 442.005, 521.569 418.518, 524.250 415.164 C 528.702 409.596, 527.581 404, 522.012 404 C 520.231 404, 518.008 405.479, 514.875 408.750 M 489.146 413.345 C 485.676 417.038, 488.862 421.761, 493.612 419.965 C 496.617 418.829, 497.280 415.280, 494.926 412.926 C 492.455 410.455, 491.817 410.501, 489.146 413.345 M 409.494 421.011 C 407.422 425.018, 408.926 427.239, 413.415 426.801 C 416.297 426.520, 416.500 426.237, 416.500 422.500 C 416.500 418.901, 416.230 418.469, 413.807 418.189 C 411.650 417.940, 410.792 418.501, 409.494 421.011 M 402.046 429.954 C 399.832 432.168, 400.234 434.622, 402.952 435.485 C 407.501 436.929, 410.198 431.246, 406.023 429.012 C 404.455 428.173, 403.632 428.368, 402.046 429.954 M 527.446 431.425 C 525.591 432.790, 525.585 432.890, 527.317 433.561 C 529.533 434.420, 531.872 432.472, 530.396 430.996 C 529.725 430.325, 528.749 430.466, 527.446 431.425 M 517.243 438.157 C 514.373 441.027, 516.203 446, 520.128 446 C 523.633 446, 526.109 441.991, 524.345 439.172 C 523.041 437.089, 518.902 436.498, 517.243 438.157 M 470.975 473.530 C 470.005 474.699, 469.971 475.641, 470.832 477.530 C 472.959 482.198, 478.861 479.565, 477.593 474.513 C 476.861 471.599, 473.048 471.032, 470.975 473.530 M 462.200 483.200 C 460.613 484.787, 460.685 485.542, 462.606 487.463 C 463.846 488.703, 464.530 488.805, 465.606 487.912 C 467.480 486.357, 467.373 483.357, 465.418 482.607 C 463.404 481.834, 463.602 481.798, 462.200 483.200 M 462.455 670.455 C 457.061 675.848, 461.005 685, 468.723 685 C 473.292 685, 478 680.448, 478 676.031 C 478 671.424, 474.163 668, 469 668 C 465.990 668, 464.261 668.648, 462.455 670.455 M 564.455 670.455 C 561.060 673.849, 561.114 679.204, 564.576 682.667 C 566.776 684.867, 567.761 685.161, 571.324 684.683 C 582.967 683.122, 582.673 668, 571 668 C 567.990 668, 566.261 668.648, 564.455 670.455 M 323.622 671.130 C 306.358 673.568, 298.129 689.305, 306.578 703.723 C 309.857 709.318, 315.582 712.524, 327.619 715.504 C 339.716 718.500, 342.394 720.295, 342.799 725.679 C 343.187 730.844, 340.802 733.808, 335.252 735.055 C 327.555 736.784, 318.009 733.365, 312.607 726.945 C 311.244 725.325, 309.930 724, 309.686 724 C 309.443 724, 307.358 726.444, 305.053 729.431 C 301.055 734.614, 300.934 734.970, 302.416 737.231 C 306.598 743.614, 316.470 748.033, 328.127 748.740 C 342.410 749.606, 352.897 744.841, 357.107 735.571 C 359.471 730.366, 359.613 720.115, 357.383 715.700 C 353.437 707.890, 349.146 705.362, 333.321 701.525 C 321.117 698.565, 318.667 696.944, 318.667 691.831 C 318.667 687.953, 321.529 685.424, 326.958 684.507 C 332.376 683.592, 341.419 685.640, 344.904 688.573 C 346.491 689.908, 348.023 691, 348.309 691 C 348.595 691, 350.533 688.679, 352.615 685.843 L 356.401 680.686 352.688 677.476 C 346.505 672.131, 334.731 669.561, 323.622 671.130 M 493.636 676.640 C 492.819 682.598, 492.824 739.303, 493.642 744.250 L 494.262 748 501.605 748 L 508.949 748 509.225 732.250 L 509.500 716.500 513.184 716.194 C 518.457 715.755, 524.544 717.651, 526.236 720.259 C 527.036 721.492, 529.597 728.237, 531.928 735.250 L 536.166 748 543.416 748 C 547.404 748, 550.924 747.742, 551.239 747.428 C 551.903 746.764, 544.093 723.014, 541.671 718.332 C 540.774 716.596, 538.868 714.255, 537.436 713.128 C 534.990 711.204, 534.840 709, 537.155 709 C 537.725 709, 539.508 708.062, 541.118 706.916 C 548.001 702.015, 550.130 690.342, 545.677 681.921 C 543.939 678.635, 542.020 676.831, 538.063 674.764 C 532.818 672.024, 532.603 672, 513.522 672 L 494.272 672 493.636 676.640 M 379.795 679.290 L 374.091 680.310 373.795 685.905 L 373.500 691.500 369.250 691.807 L 365 692.115 365 698.057 L 365 704 369.433 704 L 373.866 704 373.865 719.993 C 373.864 734.757, 374.038 736.296, 376.129 740.016 C 380.539 747.862, 394.494 751.809, 402.121 747.367 C 406.108 745.045, 406.653 742.806, 404.491 737.632 C 403.269 734.707, 402.506 733.984, 401.200 734.511 C 400.265 734.888, 397.874 735.429, 395.886 735.712 C 389.902 736.564, 389 734.220, 389 717.820 L 389 704.084 396.750 703.792 L 404.500 703.500 404.800 697.750 L 405.100 692 397.096 692 L 389.091 692 388.796 685.260 C 388.460 677.617, 388.608 677.715, 379.795 679.290 M 509.464 685.234 C 509.161 686.022, 509.046 690.455, 509.207 695.084 L 509.500 703.500 515.719 703.797 C 528.299 704.398, 533.781 700.859, 532.704 692.832 C 531.794 686.046, 529.442 684.558, 518.980 684.151 C 511.884 683.874, 509.899 684.100, 509.464 685.234 M 607.326 691.034 C 592.446 694.014, 586.310 707.450, 595.203 717.579 C 597.669 720.387, 600.053 721.568, 608.357 724.097 C 613.936 725.796, 619.246 728.043, 620.157 729.089 C 623.960 733.456, 618.550 737.759, 610.731 736.587 C 606.880 736.009, 604.247 734.732, 598.786 730.792 C 597.340 729.749, 596.586 730.020, 593.950 732.528 C 588.993 737.246, 588.480 738.817, 591.013 741.514 C 595.405 746.189, 602.615 748.477, 613 748.489 C 621.651 748.499, 622.933 748.246, 627.342 745.654 C 638.306 739.210, 638.940 723.938, 628.497 717.866 C 626.848 716.908, 621.450 714.953, 616.500 713.523 C 605.446 710.330, 604.003 709.171, 606.441 705.450 C 608.091 702.932, 608.556 702.802, 614.563 703.185 C 619.528 703.501, 621.490 704.112, 623.446 705.949 L 625.956 708.307 629.937 703.904 C 632.126 701.482, 633.936 699.203, 633.959 698.839 C 634.049 697.382, 627.684 692.996, 624.205 692.118 C 618.023 690.557, 611.724 690.153, 607.326 691.034 M 662.994 691.934 C 655.442 694.231, 650.339 698.823, 646.806 706.500 C 644.958 710.516, 644.515 713.172, 644.556 720 C 644.666 738.542, 653.672 747.763, 672.683 748.798 C 679.657 749.178, 681.539 748.918, 685.430 747.034 C 689.532 745.048, 697 737.837, 697 735.862 C 697 735.434, 694.920 733.865, 692.377 732.375 C 688.641 730.186, 687.441 729.892, 686.127 730.847 C 680.183 735.165, 678.184 735.993, 673.700 735.996 C 667.480 736.001, 663.201 733.725, 661.421 729.466 C 658.654 722.843, 658.061 723.072, 678.750 722.772 L 697.500 722.500 697.810 718.198 C 697.981 715.832, 697.602 711.400, 696.969 708.350 C 696.044 703.897, 694.899 701.858, 691.159 698.002 C 688.151 694.901, 685.083 692.812, 682.500 692.105 C 678.001 690.875, 666.801 690.776, 662.994 691.934 M 416.452 693.266 C 416.184 693.962, 416.086 706.449, 416.233 721.016 L 416.500 747.500 424 747.500 L 431.500 747.500 431.839 731.036 C 432.121 717.323, 432.493 713.953, 434.066 710.871 C 436.304 706.483, 440.756 704.618, 446.715 705.570 L 450.699 706.207 451.902 700.093 C 452.564 696.730, 452.830 693.533, 452.493 692.989 C 452.157 692.445, 449.243 692, 446.018 692 C 440.858 692, 439.603 692.420, 435.577 695.493 L 431 698.987 431 695.493 L 431 692 423.969 692 C 419.220 692, 416.780 692.411, 416.452 693.266 M 461.706 692.627 C 460.849 693.484, 460.779 742.574, 461.630 745.750 C 462.180 747.803, 462.828 748, 469.006 748 L 475.779 748 476.423 726.750 C 476.777 715.063, 476.890 702.575, 476.673 699 L 476.279 692.500 469.346 692.210 C 465.532 692.051, 462.095 692.239, 461.706 692.627 M 563.706 692.627 C 562.846 693.487, 562.753 744.192, 563.607 746.418 C 564.079 747.649, 565.744 748, 571.107 748 L 578 748 578.069 739.750 C 578.106 735.212, 578.144 722.725, 578.151 712 L 578.165 692.500 571.289 692.210 C 567.507 692.051, 564.095 692.239, 563.706 692.627 M 667.030 703.279 C 664.366 704.627, 660 710.445, 660 712.648 C 660 713.702, 662.429 714, 671.031 714 C 683.292 714, 684.263 713.462, 681.973 707.935 C 679.816 702.728, 672.577 700.472, 667.030 703.279" stroke="none" fill="#ec7ca3" fill-rule="evenodd"/><path d="M 0 500.001 L 0 1000.002 500.250 999.751 L 1000.500 999.500 1000.751 499.750 L 1001.002 0 500.501 0 L 0 0 0 500.001 M 0.496 500.500 C 0.496 775.500, 0.610 887.851, 0.750 750.168 C 0.890 612.486, 0.890 387.486, 0.750 250.168 C 0.610 112.851, 0.496 225.500, 0.496 500.500 M 466.500 229.613 C 447.478 231.475, 428.335 237.163, 411 246.105 C 396.448 253.611, 388.087 259.802, 375.432 272.443 C 359.068 288.790, 348.223 306.484, 340.596 329.281 C 335.383 344.862, 333.632 355.922, 333.672 373 C 333.725 395.804, 338.018 412.416, 349.796 435.398 C 354.433 444.448, 366.303 461.108, 371.910 466.437 C 375.912 470.241, 375.810 469.405, 371.493 462.989 C 363.878 451.674, 356.089 431.840, 353.542 417.282 C 351.528 405.763, 351.527 381.991, 353.541 370.381 C 356.387 353.971, 361.734 340.144, 370.592 326.284 C 377.854 314.920, 393.267 300.892, 404.981 294.984 C 415.192 289.834, 433.018 285.001, 441.815 284.998 C 447.630 284.997, 449.580 283.926, 466.405 271.500 C 481.962 260.011, 496.587 251.065, 513.818 242.500 C 520.457 239.200, 525.914 236.234, 525.944 235.908 C 526.027 235.033, 519.669 233.299, 509.500 231.424 C 500.934 229.845, 475.205 228.761, 466.500 229.613 M 571.456 230.947 C 557.686 232.535, 538.860 238.589, 518.570 247.953 C 496.973 257.920, 468.231 277.456, 440 301.358 C 427.465 311.971, 407.203 331.799, 405.418 335.200 C 402.367 341.012, 405.093 347.031, 410.750 346.971 C 414.073 346.935, 417.103 344.250, 426.894 332.666 C 433.372 324.999, 436.597 322, 438.363 322 C 439.220 322, 442 325.102, 442 326.057 C 442 326.815, 426.379 344.833, 413.439 359 C 401.113 372.495, 393 382.349, 393 383.824 C 393 386.436, 395.871 390, 397.975 390 C 401.399 390, 402.767 388.907, 409.635 380.680 C 422.248 365.572, 445.829 340.879, 461.555 326.311 C 499.870 290.818, 544.907 264.807, 585.934 254.478 C 608.613 248.768, 626.342 250.955, 636.750 260.745 C 641.084 264.822, 640.858 262.761, 636.192 255.666 C 628.279 243.632, 618.980 236.672, 605.980 233.052 C 597.433 230.672, 582.003 229.731, 571.456 230.947 M 592.500 259.366 C 571.685 263.856, 554.027 270.812, 533 282.806 C 503.769 299.479, 480.997 317.224, 451.262 346.500 C 435.877 361.647, 433.996 363.857, 433.998 366.775 C 434 369.369, 434.533 370.252, 436.565 371.025 C 437.976 371.561, 439.371 372, 439.664 372 C 439.958 372, 447.780 364.316, 457.047 354.924 C 470.514 341.274, 474.357 337.913, 476.197 338.174 C 479.333 338.618, 479.629 341.937, 476.808 345.019 C 475.559 346.384, 469.353 352.912, 463.018 359.527 C 456.683 366.143, 449.475 373.795, 447 376.532 C 429.447 395.946, 424.057 401.959, 421.224 405.285 C 417.198 410.011, 416.906 414.181, 420.488 415.813 C 423.811 417.326, 424.998 416.731, 429.596 411.247 C 464.922 369.108, 490.775 344.904, 524.823 322.096 C 541.947 310.624, 575.132 295.192, 591.910 290.897 C 611.210 285.956, 626.165 290.595, 629.774 302.640 C 631.243 307.544, 631.304 318.771, 629.895 325 C 629.335 327.475, 628.664 330.850, 628.404 332.500 C 627.584 337.704, 633.724 324.977, 637.723 313.181 C 640.851 303.956, 641.351 301.205, 641.395 293 C 641.436 285.360, 640.999 282.380, 639.162 277.779 C 636.099 270.107, 630.055 264.064, 622.500 261.119 C 615.159 258.257, 601.373 257.451, 592.500 259.366 M 585.929 300.440 C 567.429 306.896, 539.052 320.145, 539.014 322.344 C 539.006 322.808, 540.924 325.733, 543.275 328.844 C 560.628 351.799, 567.001 370.112, 566.995 397 C 566.989 422.190, 561.827 439.843, 541.996 482.500 C 518.794 532.406, 513.429 553.336, 517.086 579.678 C 518.949 593.094, 526.216 609.519, 535.471 621.231 C 540.174 627.182, 544.456 629.461, 546.097 626.885 C 546.582 626.123, 546.747 624.871, 546.464 624.102 C 546.181 623.333, 545.677 616.583, 545.345 609.102 C 544.316 585.943, 548.973 563.388, 558.528 545.257 C 572.459 518.823, 590.923 506.649, 621.191 503.938 C 660.247 500.440, 674.435 486.235, 661.031 464.051 C 656.281 456.190, 656.052 453.313, 659.564 445.641 C 661.850 440.648, 661.985 439.739, 660.807 437.270 C 659.692 434.933, 658.783 434.456, 654.993 434.218 C 647.482 433.746, 647.458 433.418, 654.439 426.739 C 660.227 421.202, 661 420.023, 661 416.730 C 661 413.721, 660.257 412.271, 657.166 409.249 C 655.058 407.187, 652.551 404.293, 651.595 402.817 C 649.415 399.450, 650.332 397.449, 657.149 390.695 C 660.279 387.594, 662 385.034, 662 383.479 C 662 379.288, 656.611 374.404, 648.710 371.433 C 634.452 366.073, 625.538 361.263, 620.288 356.095 C 614.318 350.218, 612.019 344.883, 608.932 329.738 C 604.902 309.973, 601.372 297.966, 599.194 296.620 C 598.734 296.336, 592.765 298.055, 585.929 300.440 M 496.362 320.500 C 494.952 324.172, 499.013 327.416, 501.680 324.748 C 503.903 322.525, 502.506 319, 499.401 319 C 498.046 319, 496.678 319.675, 496.362 320.500 M 483.390 329.427 C 481.728 333.756, 485.386 338.506, 488.750 336.388 C 491.203 334.843, 491.483 332.191, 489.433 329.926 C 487.384 327.662, 484.169 327.397, 483.390 329.427 M 397.514 348.985 C 395.065 351.691, 395.930 355.214, 399.262 356.099 C 403.729 357.287, 406.565 353.325, 403.750 349.831 C 401.722 347.314, 399.321 346.988, 397.514 348.985 M 389.685 360.378 C 389.094 361.919, 390.765 364, 392.593 364 C 393.997 364, 395.254 361.221, 394.444 359.910 C 393.578 358.508, 390.278 358.833, 389.685 360.378 M 425.342 375.601 C 423.334 378.665, 424.424 381.310, 427.907 381.827 C 432.532 382.513, 435.095 376.192, 431.066 374.035 C 428.168 372.484, 427.213 372.745, 425.342 375.601 M 487.738 384.087 C 486.769 384.651, 482.786 389.250, 478.888 394.306 C 465.707 411.405, 453.575 424.882, 433 445.283 C 410.894 467.203, 399.078 476.774, 386.500 482.948 C 366.475 492.777, 352.632 490.076, 346.925 475.226 C 345.114 470.513, 344.729 467.479, 344.746 458.082 C 344.769 445.821, 343.881 445.282, 342.144 456.500 C 338.481 480.149, 341.068 495.694, 350.340 505.753 C 356.154 512.061, 360.977 514.240, 370.359 514.800 C 380.473 515.404, 387.426 513.847, 398 508.610 C 414.884 500.248, 432.374 485.950, 460.388 457.609 C 486.412 431.282, 489.585 426.985, 485.800 423.200 C 482.863 420.263, 480.320 422.064, 465.940 437.264 C 448.985 455.187, 446.722 457.214, 444.589 456.396 C 440.909 454.984, 442.984 451.160, 453.312 440.322 C 478.162 414.242, 496 392.431, 496 388.126 C 496 384.017, 491.574 381.853, 487.738 384.087 M 416.750 385.080 C 414.579 386.344, 414.512 388.369, 416.571 390.429 C 418.867 392.724, 420.881 392.355, 422.232 389.390 C 423.253 387.150, 423.152 386.584, 421.519 385.390 C 419.286 383.757, 419.047 383.742, 416.750 385.080 M 385.223 392.557 C 381.207 395.369, 383.301 402, 388.205 402 C 390.981 402, 394 399.224, 394 396.671 C 394 394.702, 390.555 391, 388.723 391 C 388.020 391, 386.445 391.701, 385.223 392.557 M 528.381 394.541 C 525.828 398.437, 527.796 402, 532.500 402 C 536.863 402, 538.726 399.041, 537.084 394.722 C 535.666 390.990, 530.774 390.889, 528.381 394.541 M 507 394.500 C 506.007 395.697, 506.007 396.303, 507 397.500 C 507.685 398.325, 508.817 399, 509.515 399 C 511.523 399, 512.067 396.209, 510.386 394.529 C 508.512 392.655, 508.531 392.655, 507 394.500 M 408.667 394.667 C 407.337 395.996, 408.047 397.880, 410.125 398.540 C 412.451 399.278, 414.153 397.563, 413.300 395.341 C 412.764 393.942, 409.820 393.514, 408.667 394.667 M 498.105 403.804 C 496.290 407.196, 500.729 410.066, 503.330 407.183 C 504.583 405.793, 504.624 405.195, 503.563 403.750 C 501.903 401.487, 499.331 401.513, 498.105 403.804 M 514.875 408.750 C 512.372 411.363, 507.721 416.650, 504.539 420.500 C 487.386 441.254, 449.373 479.689, 432.742 493.094 C 397.028 521.880, 376.597 528.463, 353.750 518.546 C 350.373 517.080, 351.978 520.152, 357.298 525.337 C 366.020 533.837, 375.699 537.843, 389.614 538.710 C 414.704 540.273, 439.420 528.900, 472.640 500.505 C 486.554 488.611, 512.243 463.693, 515.175 459.247 C 518.922 453.565, 516.429 447, 510.525 447 C 507.521 447, 505.967 448.277, 495.918 459 C 489.542 465.803, 483.885 471, 482.855 471 C 480.044 471, 479.321 466.377, 481.711 463.695 C 482.786 462.488, 487.203 457.450, 491.525 452.500 C 495.847 447.550, 499.636 443.275, 499.944 443 C 501.060 442.005, 521.569 418.518, 524.250 415.164 C 528.702 409.596, 527.581 404, 522.012 404 C 520.231 404, 518.008 405.479, 514.875 408.750 M 489.146 413.345 C 485.676 417.038, 488.862 421.761, 493.612 419.965 C 496.617 418.829, 497.280 415.280, 494.926 412.926 C 492.455 410.455, 491.817 410.501, 489.146 413.345 M 409.494 421.011 C 407.422 425.018, 408.926 427.239, 413.415 426.801 C 416.297 426.520, 416.500 426.237, 416.500 422.500 C 416.500 418.901, 416.230 418.469, 413.807 418.189 C 411.650 417.940, 410.792 418.501, 409.494 421.011 M 402.046 429.954 C 399.832 432.168, 400.234 434.622, 402.952 435.485 C 407.501 436.929, 410.198 431.246, 406.023 429.012 C 404.455 428.173, 403.632 428.368, 402.046 429.954 M 527.446 431.425 C 525.591 432.790, 525.585 432.890, 527.317 433.561 C 529.533 434.420, 531.872 432.472, 530.396 430.996 C 529.725 430.325, 528.749 430.466, 527.446 431.425 M 517.243 438.157 C 514.373 441.027, 516.203 446, 520.128 446 C 523.633 446, 526.109 441.991, 524.345 439.172 C 523.041 437.089, 518.902 436.498, 517.243 438.157 M 470.975 473.530 C 470.005 474.699, 469.971 475.641, 470.832 477.530 C 472.959 482.198, 478.861 479.565, 477.593 474.513 C 476.861 471.599, 473.048 471.032, 470.975 473.530 M 462.200 483.200 C 460.613 484.787, 460.685 485.542, 462.606 487.463 C 463.846 488.703, 464.530 488.805, 465.606 487.912 C 467.480 486.357, 467.373 483.357, 465.418 482.607 C 463.404 481.834, 463.602 481.798, 462.200 483.200 M 462.455 670.455 C 457.061 675.848, 461.005 685, 468.723 685 C 473.292 685, 478 680.448, 478 676.031 C 478 671.424, 474.163 668, 469 668 C 465.990 668, 464.261 668.648, 462.455 670.455 M 564.455 670.455 C 561.060 673.849, 561.114 679.204, 564.576 682.667 C 566.776 684.867, 567.761 685.161, 571.324 684.683 C 582.967 683.122, 582.673 668, 571 668 C 567.990 668, 566.261 668.648, 564.455 670.455 M 323.622 671.130 C 306.358 673.568, 298.129 689.305, 306.578 703.723 C 309.857 709.318, 315.582 712.524, 327.619 715.504 C 339.716 718.500, 342.394 720.295, 342.799 725.679 C 343.187 730.844, 340.802 733.808, 335.252 735.055 C 327.555 736.784, 318.009 733.365, 312.607 726.945 C 311.244 725.325, 309.930 724, 309.686 724 C 309.443 724, 307.358 726.444, 305.053 729.431 C 301.055 734.614, 300.934 734.970, 302.416 737.231 C 306.598 743.614, 316.470 748.033, 328.127 748.740 C 342.410 749.606, 352.897 744.841, 357.107 735.571 C 359.471 730.366, 359.613 720.115, 357.383 715.700 C 353.437 707.890, 349.146 705.362, 333.321 701.525 C 321.117 698.565, 318.667 696.944, 318.667 691.831 C 318.667 687.953, 321.529 685.424, 326.958 684.507 C 332.376 683.592, 341.419 685.640, 344.904 688.573 C 346.491 689.908, 348.023 691, 348.309 691 C 348.595 691, 350.533 688.679, 352.615 685.843 L 356.401 680.686 352.688 677.476 C 346.505 672.131, 334.731 669.561, 323.622 671.130 M 493.636 676.640 C 492.819 682.598, 492.824 739.303, 493.642 744.250 L 494.262 748 501.605 748 L 508.949 748 509.225 732.250 L 509.500 716.500 513.184 716.194 C 518.457 715.755, 524.544 717.651, 526.236 720.259 C 527.036 721.492, 529.597 728.237, 531.928 735.250 L 536.166 748 543.416 748 C 547.404 748, 550.924 747.742, 551.239 747.428 C 551.903 746.764, 544.093 723.014, 541.671 718.332 C 540.774 716.596, 538.868 714.255, 537.436 713.128 C 534.990 711.204, 534.840 709, 537.155 709 C 537.725 709, 539.508 708.062, 541.118 706.916 C 548.001 702.015, 550.130 690.342, 545.677 681.921 C 543.939 678.635, 542.020 676.831, 538.063 674.764 C 532.818 672.024, 532.603 672, 513.522 672 L 494.272 672 493.636 676.640 M 379.795 679.290 L 374.091 680.310 373.795 685.905 L 373.500 691.500 369.250 691.807 L 365 692.115 365 698.057 L 365 704 369.433 704 L 373.866 704 373.865 719.993 C 373.864 734.757, 374.038 736.296, 376.129 740.016 C 380.539 747.862, 394.494 751.809, 402.121 747.367 C 406.108 745.045, 406.653 742.806, 404.491 737.632 C 403.269 734.707, 402.506 733.984, 401.200 734.511 C 400.265 734.888, 397.874 735.429, 395.886 735.712 C 389.902 736.564, 389 734.220, 389 717.820 L 389 704.084 396.750 703.792 L 404.500 703.500 404.800 697.750 L 405.100 692 397.096 692 L 389.091 692 388.796 685.260 C 388.460 677.617, 388.608 677.715, 379.795 679.290 M 509.464 685.234 C 509.161 686.022, 509.046 690.455, 509.207 695.084 L 509.500 703.500 515.719 703.797 C 528.299 704.398, 533.781 700.859, 532.704 692.832 C 531.794 686.046, 529.442 684.558, 518.980 684.151 C 511.884 683.874, 509.899 684.100, 509.464 685.234 M 607.326 691.034 C 592.446 694.014, 586.310 707.450, 595.203 717.579 C 597.669 720.387, 600.053 721.568, 608.357 724.097 C 613.936 725.796, 619.246 728.043, 620.157 729.089 C 623.960 733.456, 618.550 737.759, 610.731 736.587 C 606.880 736.009, 604.247 734.732, 598.786 730.792 C 597.340 729.749, 596.586 730.020, 593.950 732.528 C 588.993 737.246, 588.480 738.817, 591.013 741.514 C 595.405 746.189, 602.615 748.477, 613 748.489 C 621.651 748.499, 622.933 748.246, 627.342 745.654 C 638.306 739.210, 638.940 723.938, 628.497 717.866 C 626.848 716.908, 621.450 714.953, 616.500 713.523 C 605.446 710.330, 604.003 709.171, 606.441 705.450 C 608.091 702.932, 608.556 702.802, 614.563 703.185 C 619.528 703.501, 621.490 704.112, 623.446 705.949 L 625.956 708.307 629.937 703.904 C 632.126 701.482, 633.936 699.203, 633.959 698.839 C 634.049 697.382, 627.684 692.996, 624.205 692.118 C 618.023 690.557, 611.724 690.153, 607.326 691.034 M 662.994 691.934 C 655.442 694.231, 650.339 698.823, 646.806 706.500 C 644.958 710.516, 644.515 713.172, 644.556 720 C 644.666 738.542, 653.672 747.763, 672.683 748.798 C 679.657 749.178, 681.539 748.918, 685.430 747.034 C 689.532 745.048, 697 737.837, 697 735.862 C 697 735.434, 694.920 733.865, 692.377 732.375 C 688.641 730.186, 687.441 729.892, 686.127 730.847 C 680.183 735.165, 678.184 735.993, 673.700 735.996 C 667.480 736.001, 663.201 733.725, 661.421 729.466 C 658.654 722.843, 658.061 723.072, 678.750 722.772 L 697.500 722.500 697.810 718.198 C 697.981 715.832, 697.602 711.400, 696.969 708.350 C 696.044 703.897, 694.899 701.858, 691.159 698.002 C 688.151 694.901, 685.083 692.812, 682.500 692.105 C 678.001 690.875, 666.801 690.776, 662.994 691.934 M 416.452 693.266 C 416.184 693.962, 416.086 706.449, 416.233 721.016 L 416.500 747.500 424 747.500 L 431.500 747.500 431.839 731.036 C 432.121 717.323, 432.493 713.953, 434.066 710.871 C 436.304 706.483, 440.756 704.618, 446.715 705.570 L 450.699 706.207 451.902 700.093 C 452.564 696.730, 452.830 693.533, 452.493 692.989 C 452.157 692.445, 449.243 692, 446.018 692 C 440.858 692, 439.603 692.420, 435.577 695.493 L 431 698.987 431 695.493 L 431 692 423.969 692 C 419.220 692, 416.780 692.411, 416.452 693.266 M 461.706 692.627 C 460.849 693.484, 460.779 742.574, 461.630 745.750 C 462.180 747.803, 462.828 748, 469.006 748 L 475.779 748 476.423 726.750 C 476.777 715.063, 476.890 702.575, 476.673 699 L 476.279 692.500 469.346 692.210 C 465.532 692.051, 462.095 692.239, 461.706 692.627 M 563.706 692.627 C 562.846 693.487, 562.753 744.192, 563.607 746.418 C 564.079 747.649, 565.744 748, 571.107 748 L 578 748 578.069 739.750 C 578.106 735.212, 578.144 722.725, 578.151 712 L 578.165 692.500 571.289 692.210 C 567.507 692.051, 564.095 692.239, 563.706 692.627 M 667.030 703.279 C 664.366 704.627, 660 710.445, 660 712.648 C 660 713.702, 662.429 714, 671.031 714 C 683.292 714, 684.263 713.462, 681.973 707.935 C 679.816 702.728, 672.577 700.472, 667.030 703.279" stroke="none" fill="#070707" fill-rule="evenodd"/></svg>